<mxfile host="app.diagrams.net" modified="2024-08-14T23:51:01.588Z" agent="Mozilla/5.0 (Windows NT 10.0; Win64; x64) AppleWebKit/537.36 (KHTML, like Gecko) Chrome/127.0.0.0 Safari/537.36 Edg/127.0.0.0" etag="Doq_nRH-GYWDGZmTR7sT" version="24.7.1" type="google" pages="3">
  <diagram id="7PJIwkh1yl2igb1_LkiO" name="Architecture">
    <mxGraphModel grid="0" page="1" gridSize="10" guides="1" tooltips="1" connect="1" arrows="1" fold="1" pageScale="1" pageWidth="1169" pageHeight="827" math="0" shadow="0">
      <root>
        <mxCell id="0" />
        <mxCell id="1" parent="0" />
        <mxCell id="Lho3KapFsk-G_WwMW2L7-36" style="edgeStyle=orthogonalEdgeStyle;rounded=0;orthogonalLoop=1;jettySize=auto;html=1;exitX=0.5;exitY=0;exitDx=0;exitDy=0;entryX=0;entryY=0.25;entryDx=0;entryDy=0;" edge="1" parent="1" source="Lho3KapFsk-G_WwMW2L7-5" target="Lho3KapFsk-G_WwMW2L7-30">
          <mxGeometry relative="1" as="geometry" />
        </mxCell>
        <mxCell id="Lho3KapFsk-G_WwMW2L7-37" style="edgeStyle=orthogonalEdgeStyle;rounded=0;orthogonalLoop=1;jettySize=auto;html=1;exitX=0.5;exitY=1;exitDx=0;exitDy=0;entryX=0;entryY=0.75;entryDx=0;entryDy=0;" edge="1" parent="1" source="Lho3KapFsk-G_WwMW2L7-5" target="Lho3KapFsk-G_WwMW2L7-21">
          <mxGeometry relative="1" as="geometry" />
        </mxCell>
        <mxCell id="Lho3KapFsk-G_WwMW2L7-5" value="Service Discovery" style="rounded=1;whiteSpace=wrap;html=1;fillColor=#6d8764;fontColor=#ffffff;strokeColor=#3A5431;fontStyle=1" vertex="1" parent="1">
          <mxGeometry x="206" y="320" width="70" height="110" as="geometry" />
        </mxCell>
        <mxCell id="Lho3KapFsk-G_WwMW2L7-18" style="edgeStyle=orthogonalEdgeStyle;rounded=0;orthogonalLoop=1;jettySize=auto;html=1;exitX=1;exitY=0.5;exitDx=0;exitDy=0;entryX=0;entryY=0.5;entryDx=0;entryDy=0;" edge="1" parent="1" source="Lho3KapFsk-G_WwMW2L7-19" target="Lho3KapFsk-G_WwMW2L7-5">
          <mxGeometry relative="1" as="geometry" />
        </mxCell>
        <mxCell id="Lho3KapFsk-G_WwMW2L7-19" value="UI Client" style="rounded=1;whiteSpace=wrap;html=1;fillColor=#b1ddf0;strokeColor=#10739e;fontStyle=1" vertex="1" parent="1">
          <mxGeometry x="16" y="360" width="120" height="30" as="geometry" />
        </mxCell>
        <mxCell id="Lho3KapFsk-G_WwMW2L7-22" value="" style="group" connectable="0" vertex="1" parent="1">
          <mxGeometry x="420" y="493" width="244" height="160" as="geometry" />
        </mxCell>
        <mxCell id="Lho3KapFsk-G_WwMW2L7-21" value="" style="rounded=1;whiteSpace=wrap;html=1;" vertex="1" parent="Lho3KapFsk-G_WwMW2L7-22">
          <mxGeometry width="244" height="160" as="geometry" />
        </mxCell>
        <mxCell id="Lho3KapFsk-G_WwMW2L7-7" value="Test Execution Service" style="rounded=1;whiteSpace=wrap;html=1;fillColor=#f0a30a;fontColor=#000000;strokeColor=#BD7000;fontStyle=1" vertex="1" parent="Lho3KapFsk-G_WwMW2L7-22">
          <mxGeometry x="17.42857142857143" y="10" width="209.14285714285714" height="40" as="geometry" />
        </mxCell>
        <mxCell id="Lho3KapFsk-G_WwMW2L7-12" value="Database" style="shape=cylinder3;whiteSpace=wrap;html=1;boundedLbl=1;backgroundOutline=1;size=15;fillColor=#f53d3d;fontStyle=1" vertex="1" parent="Lho3KapFsk-G_WwMW2L7-22">
          <mxGeometry x="89" y="94" width="77.71" height="50" as="geometry" />
        </mxCell>
        <mxCell id="Lho3KapFsk-G_WwMW2L7-13" style="edgeStyle=orthogonalEdgeStyle;rounded=0;orthogonalLoop=1;jettySize=auto;html=1;exitX=0.855;exitY=0;exitDx=0;exitDy=4.35;exitPerimeter=0;entryX=0.667;entryY=1.03;entryDx=0;entryDy=0;entryPerimeter=0;" edge="1" parent="Lho3KapFsk-G_WwMW2L7-22">
          <mxGeometry relative="1" as="geometry">
            <mxPoint x="139.1671428571427" y="92.35000000000002" as="sourcePoint" />
            <mxPoint x="139.49828571428566" y="49.200000000000045" as="targetPoint" />
          </mxGeometry>
        </mxCell>
        <mxCell id="Lho3KapFsk-G_WwMW2L7-14" style="edgeStyle=orthogonalEdgeStyle;rounded=0;orthogonalLoop=1;jettySize=auto;html=1;exitX=0.25;exitY=1;exitDx=0;exitDy=0;entryX=0.145;entryY=0;entryDx=0;entryDy=4.35;entryPerimeter=0;" edge="1" parent="Lho3KapFsk-G_WwMW2L7-22">
          <mxGeometry relative="1" as="geometry">
            <mxPoint x="111.54285714285714" y="50" as="sourcePoint" />
            <mxPoint x="111.80428571428587" y="94.35000000000002" as="targetPoint" />
          </mxGeometry>
        </mxCell>
        <mxCell id="Lho3KapFsk-G_WwMW2L7-23" value="" style="group" connectable="0" vertex="1" parent="1">
          <mxGeometry x="420" y="295" width="250" height="171" as="geometry" />
        </mxCell>
        <mxCell id="Lho3KapFsk-G_WwMW2L7-52" style="edgeStyle=orthogonalEdgeStyle;rounded=0;orthogonalLoop=1;jettySize=auto;html=1;exitX=1;exitY=0.5;exitDx=0;exitDy=0;" edge="1" parent="Lho3KapFsk-G_WwMW2L7-23">
          <mxGeometry relative="1" as="geometry">
            <mxPoint x="412" y="80" as="targetPoint" />
            <mxPoint x="214" y="80" as="sourcePoint" />
          </mxGeometry>
        </mxCell>
        <mxCell id="Lho3KapFsk-G_WwMW2L7-24" value="" style="rounded=1;whiteSpace=wrap;html=1;" vertex="1" parent="Lho3KapFsk-G_WwMW2L7-23">
          <mxGeometry width="250" height="171" as="geometry" />
        </mxCell>
        <mxCell id="Lho3KapFsk-G_WwMW2L7-25" value="Payload Analysis Service" style="rounded=1;whiteSpace=wrap;html=1;fillColor=#f0a30a;fontColor=#000000;strokeColor=#BD7000;fontStyle=1" vertex="1" parent="Lho3KapFsk-G_WwMW2L7-23">
          <mxGeometry x="66" y="18" width="120" height="40" as="geometry" />
        </mxCell>
        <mxCell id="Lho3KapFsk-G_WwMW2L7-26" value="Database" style="shape=cylinder3;whiteSpace=wrap;html=1;boundedLbl=1;backgroundOutline=1;size=15;fillColor=#f53d3d;fontStyle=1" vertex="1" parent="Lho3KapFsk-G_WwMW2L7-23">
          <mxGeometry x="96" y="102" width="70" height="50" as="geometry" />
        </mxCell>
        <mxCell id="Lho3KapFsk-G_WwMW2L7-27" style="edgeStyle=orthogonalEdgeStyle;rounded=0;orthogonalLoop=1;jettySize=auto;html=1;exitX=0.855;exitY=0;exitDx=0;exitDy=4.35;exitPerimeter=0;entryX=0.667;entryY=1.03;entryDx=0;entryDy=0;entryPerimeter=0;" edge="1" parent="Lho3KapFsk-G_WwMW2L7-23">
          <mxGeometry relative="1" as="geometry">
            <mxPoint x="135.8499999999999" y="100.35000000000002" as="sourcePoint" />
            <mxPoint x="136.03999999999996" y="57.200000000000045" as="targetPoint" />
          </mxGeometry>
        </mxCell>
        <mxCell id="Lho3KapFsk-G_WwMW2L7-28" style="edgeStyle=orthogonalEdgeStyle;rounded=0;orthogonalLoop=1;jettySize=auto;html=1;exitX=0.25;exitY=1;exitDx=0;exitDy=0;entryX=0.145;entryY=0;entryDx=0;entryDy=4.35;entryPerimeter=0;" edge="1" parent="Lho3KapFsk-G_WwMW2L7-23">
          <mxGeometry relative="1" as="geometry">
            <mxPoint x="120" y="58" as="sourcePoint" />
            <mxPoint x="120.15000000000009" y="102.35000000000002" as="targetPoint" />
          </mxGeometry>
        </mxCell>
        <mxCell id="Lho3KapFsk-G_WwMW2L7-29" value="" style="group" connectable="0" vertex="1" parent="1">
          <mxGeometry x="420" y="110" width="249" height="160" as="geometry" />
        </mxCell>
        <mxCell id="Lho3KapFsk-G_WwMW2L7-30" value="" style="rounded=1;whiteSpace=wrap;html=1;" vertex="1" parent="Lho3KapFsk-G_WwMW2L7-29">
          <mxGeometry width="249.00000000000003" height="160" as="geometry" />
        </mxCell>
        <mxCell id="Lho3KapFsk-G_WwMW2L7-31" value="Auth Service" style="rounded=1;whiteSpace=wrap;html=1;fillColor=#f0a30a;fontColor=#000000;strokeColor=#BD7000;fontStyle=1" vertex="1" parent="Lho3KapFsk-G_WwMW2L7-29">
          <mxGeometry x="17.78571428571429" y="10" width="213.42857142857144" height="40" as="geometry" />
        </mxCell>
        <mxCell id="Lho3KapFsk-G_WwMW2L7-32" value="Database" style="shape=cylinder3;whiteSpace=wrap;html=1;boundedLbl=1;backgroundOutline=1;size=15;fillColor=#f53d3d;fontStyle=1" vertex="1" parent="Lho3KapFsk-G_WwMW2L7-29">
          <mxGeometry x="94.14" y="94" width="71.86" height="50" as="geometry" />
        </mxCell>
        <mxCell id="Lho3KapFsk-G_WwMW2L7-33" style="edgeStyle=orthogonalEdgeStyle;rounded=0;orthogonalLoop=1;jettySize=auto;html=1;exitX=0.855;exitY=0;exitDx=0;exitDy=4.35;exitPerimeter=0;entryX=0.667;entryY=1.03;entryDx=0;entryDy=0;entryPerimeter=0;" edge="1" parent="Lho3KapFsk-G_WwMW2L7-29">
          <mxGeometry relative="1" as="geometry">
            <mxPoint x="142.0189285714284" y="92.35000000000002" as="sourcePoint" />
            <mxPoint x="142.35685714285708" y="49.200000000000045" as="targetPoint" />
          </mxGeometry>
        </mxCell>
        <mxCell id="Lho3KapFsk-G_WwMW2L7-34" style="edgeStyle=orthogonalEdgeStyle;rounded=0;orthogonalLoop=1;jettySize=auto;html=1;exitX=0.25;exitY=1;exitDx=0;exitDy=0;entryX=0.145;entryY=0;entryDx=0;entryDy=4.35;entryPerimeter=0;" edge="1" parent="Lho3KapFsk-G_WwMW2L7-29">
          <mxGeometry relative="1" as="geometry">
            <mxPoint x="113.82857142857144" y="50" as="sourcePoint" />
            <mxPoint x="114.09535714285731" y="94.35000000000002" as="targetPoint" />
          </mxGeometry>
        </mxCell>
        <mxCell id="Lho3KapFsk-G_WwMW2L7-53" style="edgeStyle=orthogonalEdgeStyle;rounded=0;orthogonalLoop=1;jettySize=auto;html=1;exitX=0.5;exitY=1;exitDx=0;exitDy=0;entryX=1;entryY=0.5;entryDx=0;entryDy=0;" edge="1" parent="1" source="Lho3KapFsk-G_WwMW2L7-38" target="Lho3KapFsk-G_WwMW2L7-21">
          <mxGeometry relative="1" as="geometry" />
        </mxCell>
        <mxCell id="Lho3KapFsk-G_WwMW2L7-38" value="WIMP App" style="swimlane;whiteSpace=wrap;html=1;fontStyle=1;fillColor=#a20025;fontColor=#ffffff;strokeColor=#6F0000;" vertex="1" parent="1">
          <mxGeometry x="831" y="160" width="281" height="373" as="geometry" />
        </mxCell>
        <mxCell id="Lho3KapFsk-G_WwMW2L7-46" style="edgeStyle=orthogonalEdgeStyle;rounded=0;orthogonalLoop=1;jettySize=auto;html=1;exitX=0.75;exitY=1;exitDx=0;exitDy=0;entryX=0.75;entryY=0;entryDx=0;entryDy=0;" edge="1" parent="Lho3KapFsk-G_WwMW2L7-38" source="Lho3KapFsk-G_WwMW2L7-39" target="Lho3KapFsk-G_WwMW2L7-40">
          <mxGeometry relative="1" as="geometry" />
        </mxCell>
        <mxCell id="Lho3KapFsk-G_WwMW2L7-39" value="FrontEnd" style="rounded=1;whiteSpace=wrap;html=1;fontStyle=1" vertex="1" parent="Lho3KapFsk-G_WwMW2L7-38">
          <mxGeometry x="52" y="96" width="166" height="35" as="geometry" />
        </mxCell>
        <mxCell id="Lho3KapFsk-G_WwMW2L7-45" style="edgeStyle=orthogonalEdgeStyle;rounded=0;orthogonalLoop=1;jettySize=auto;html=1;exitX=0.25;exitY=0;exitDx=0;exitDy=0;entryX=0.25;entryY=1;entryDx=0;entryDy=0;" edge="1" parent="Lho3KapFsk-G_WwMW2L7-38" source="Lho3KapFsk-G_WwMW2L7-40" target="Lho3KapFsk-G_WwMW2L7-39">
          <mxGeometry relative="1" as="geometry" />
        </mxCell>
        <mxCell id="Lho3KapFsk-G_WwMW2L7-40" value="Business Logic" style="rounded=1;whiteSpace=wrap;html=1;fontStyle=1" vertex="1" parent="Lho3KapFsk-G_WwMW2L7-38">
          <mxGeometry x="52" y="151" width="169" height="35" as="geometry" />
        </mxCell>
        <mxCell id="Lho3KapFsk-G_WwMW2L7-43" style="edgeStyle=orthogonalEdgeStyle;rounded=0;orthogonalLoop=1;jettySize=auto;html=1;exitX=0.5;exitY=0;exitDx=0;exitDy=0;exitPerimeter=0;entryX=0.5;entryY=1;entryDx=0;entryDy=0;" edge="1" parent="Lho3KapFsk-G_WwMW2L7-38" source="Lho3KapFsk-G_WwMW2L7-42" target="Lho3KapFsk-G_WwMW2L7-40">
          <mxGeometry relative="1" as="geometry" />
        </mxCell>
        <mxCell id="Lho3KapFsk-G_WwMW2L7-42" value="Database" style="shape=cylinder3;whiteSpace=wrap;html=1;boundedLbl=1;backgroundOutline=1;size=15;fontStyle=1" vertex="1" parent="Lho3KapFsk-G_WwMW2L7-38">
          <mxGeometry x="82" y="221" width="110" height="80" as="geometry" />
        </mxCell>
        <mxCell id="Lho3KapFsk-G_WwMW2L7-51" value="{API} : http connection" style="text;html=1;align=center;verticalAlign=middle;whiteSpace=wrap;rounded=0;fontStyle=1;fontSize=10;" vertex="1" parent="1">
          <mxGeometry x="720" y="547" width="150" height="30" as="geometry" />
        </mxCell>
        <mxCell id="Lho3KapFsk-G_WwMW2L7-54" value="{API} : http connection" style="text;html=1;align=center;verticalAlign=middle;whiteSpace=wrap;rounded=0;fontStyle=1;fontSize=10;" vertex="1" parent="1">
          <mxGeometry x="670" y="352" width="150" height="30" as="geometry" />
        </mxCell>
        <mxCell id="Lho3KapFsk-G_WwMW2L7-56" value="&lt;span style=&quot;font-weight: 700; text-wrap: nowrap;&quot;&gt;/payload&lt;/span&gt;" style="text;html=1;align=center;verticalAlign=middle;whiteSpace=wrap;rounded=0;" vertex="1" parent="1">
          <mxGeometry x="309" y="352" width="60" height="20" as="geometry" />
        </mxCell>
        <mxCell id="Lho3KapFsk-G_WwMW2L7-59" value="/auth" style="text;html=1;align=center;verticalAlign=middle;resizable=0;points=[];autosize=1;strokeColor=none;fillColor=none;fontStyle=1" vertex="1" parent="1">
          <mxGeometry x="303" y="128" width="50" height="30" as="geometry" />
        </mxCell>
        <mxCell id="Lho3KapFsk-G_WwMW2L7-60" value="&lt;span style=&quot;font-weight: 700; text-wrap: nowrap;&quot;&gt;/test&lt;/span&gt;" style="text;html=1;align=center;verticalAlign=middle;whiteSpace=wrap;rounded=0;" vertex="1" parent="1">
          <mxGeometry x="309" y="573" width="60" height="30" as="geometry" />
        </mxCell>
        <mxCell id="QWPHpEQG-vNg7snsBNsD-1" value="WIMP response" style="text;html=1;align=center;verticalAlign=middle;whiteSpace=wrap;rounded=0;fontStyle=1;fontSize=10;" vertex="1" parent="1">
          <mxGeometry x="723" y="567" width="150" height="30" as="geometry" />
        </mxCell>
        <mxCell id="QWPHpEQG-vNg7snsBNsD-2" value="Send Payload to WIMP" style="text;html=1;align=center;verticalAlign=middle;whiteSpace=wrap;rounded=0;fontStyle=1;fontSize=10;" vertex="1" parent="1">
          <mxGeometry x="669" y="369" width="150" height="30" as="geometry" />
        </mxCell>
        <mxCell id="w6f-t58NFPNfgxpDCZbI-1" style="edgeStyle=orthogonalEdgeStyle;rounded=0;orthogonalLoop=1;jettySize=auto;html=1;exitX=1;exitY=0.5;exitDx=0;exitDy=0;entryX=0.004;entryY=0.468;entryDx=0;entryDy=0;entryPerimeter=0;" edge="1" parent="1" source="Lho3KapFsk-G_WwMW2L7-5" target="Lho3KapFsk-G_WwMW2L7-24">
          <mxGeometry relative="1" as="geometry" />
        </mxCell>
      </root>
    </mxGraphModel>
  </diagram>
  <diagram id="p8JpVpi4hdnFVoVBdrq_" name="Architecture IoTTestTool">
    <mxGraphModel grid="0" page="1" gridSize="10" guides="1" tooltips="1" connect="1" arrows="1" fold="1" pageScale="1" pageWidth="1169" pageHeight="827" math="0" shadow="0">
      <root>
        <mxCell id="0" />
        <mxCell id="1" parent="0" />
        <mxCell id="hH7E1oOwA9dy5rn2mmX7-33" style="edgeStyle=orthogonalEdgeStyle;rounded=0;orthogonalLoop=1;jettySize=auto;html=1;exitX=1;exitY=0.5;exitDx=0;exitDy=0;fontStyle=1" edge="1" parent="1" source="rj8hadXewfnGIuyZVq-A-1">
          <mxGeometry relative="1" as="geometry">
            <mxPoint x="328" y="147" as="targetPoint" />
          </mxGeometry>
        </mxCell>
        <mxCell id="rj8hadXewfnGIuyZVq-A-1" value="COLLECT DES DONNÉES IoT" style="swimlane;whiteSpace=wrap;html=1;fontStyle=1;fillColor=#d5e8d4;strokeColor=#82b366;" vertex="1" parent="1">
          <mxGeometry x="53" y="47" width="200" height="200" as="geometry" />
        </mxCell>
        <mxCell id="rj8hadXewfnGIuyZVq-A-7" value="1" style="ellipse;whiteSpace=wrap;html=1;aspect=fixed;fillColor=#e1d5e7;strokeColor=#9673a6;fontStyle=1;fontSize=33;" vertex="1" parent="rj8hadXewfnGIuyZVq-A-1">
          <mxGeometry x="16" y="36" width="46" height="46" as="geometry" />
        </mxCell>
        <mxCell id="rj8hadXewfnGIuyZVq-A-2" value="PAYLOAD" style="shape=process;whiteSpace=wrap;html=1;backgroundOutline=1;fontStyle=1;fillColor=#ffe6cc;strokeColor=#d79b00;" vertex="1" parent="1">
          <mxGeometry x="329" y="120" width="120" height="60" as="geometry" />
        </mxCell>
        <mxCell id="rj8hadXewfnGIuyZVq-A-3" value="BOITE NOIRE" style="text;html=1;align=center;verticalAlign=middle;resizable=0;points=[];autosize=1;strokeColor=none;fillColor=none;fontStyle=1" vertex="1" parent="1">
          <mxGeometry x="107.5" y="138" width="94" height="26" as="geometry" />
        </mxCell>
        <mxCell id="hH7E1oOwA9dy5rn2mmX7-35" style="edgeStyle=orthogonalEdgeStyle;rounded=0;orthogonalLoop=1;jettySize=auto;html=1;exitX=0.25;exitY=1;exitDx=0;exitDy=0;" edge="1" parent="1" source="rj8hadXewfnGIuyZVq-A-8">
          <mxGeometry relative="1" as="geometry">
            <mxPoint x="488" y="552" as="targetPoint" />
          </mxGeometry>
        </mxCell>
        <mxCell id="rj8hadXewfnGIuyZVq-A-8" value="OUTIL DE TEST" style="swimlane;whiteSpace=wrap;html=1;fontStyle=1;fillColor=#f5f5f5;fontColor=#333333;strokeColor=#808000;" vertex="1" parent="1">
          <mxGeometry x="289" y="267" width="797" height="227" as="geometry" />
        </mxCell>
        <mxCell id="hH7E1oOwA9dy5rn2mmX7-5" style="edgeStyle=orthogonalEdgeStyle;rounded=0;orthogonalLoop=1;jettySize=auto;html=1;exitX=1;exitY=0.5;exitDx=0;exitDy=0;entryX=0;entryY=0.5;entryDx=0;entryDy=0;fontStyle=1" edge="1" parent="rj8hadXewfnGIuyZVq-A-8" source="rj8hadXewfnGIuyZVq-A-9" target="rj8hadXewfnGIuyZVq-A-10">
          <mxGeometry relative="1" as="geometry" />
        </mxCell>
        <mxCell id="rj8hadXewfnGIuyZVq-A-9" value="AUTHENTIFICATION" style="rounded=1;whiteSpace=wrap;html=1;fontStyle=1" vertex="1" parent="rj8hadXewfnGIuyZVq-A-8">
          <mxGeometry x="19" y="45" width="120" height="60" as="geometry" />
        </mxCell>
        <mxCell id="hH7E1oOwA9dy5rn2mmX7-31" style="edgeStyle=orthogonalEdgeStyle;rounded=0;orthogonalLoop=1;jettySize=auto;html=1;exitX=1;exitY=0.5;exitDx=0;exitDy=0;fontStyle=1" edge="1" parent="rj8hadXewfnGIuyZVq-A-8" source="rj8hadXewfnGIuyZVq-A-10" target="rj8hadXewfnGIuyZVq-A-11">
          <mxGeometry relative="1" as="geometry" />
        </mxCell>
        <mxCell id="rj8hadXewfnGIuyZVq-A-10" value="TRAITEMENT DU PAYLOAD" style="rounded=1;whiteSpace=wrap;html=1;fontStyle=1" vertex="1" parent="rj8hadXewfnGIuyZVq-A-8">
          <mxGeometry x="188" y="45" width="122" height="60" as="geometry" />
        </mxCell>
        <mxCell id="hH7E1oOwA9dy5rn2mmX7-17" style="edgeStyle=orthogonalEdgeStyle;rounded=0;orthogonalLoop=1;jettySize=auto;html=1;exitX=1;exitY=0.5;exitDx=0;exitDy=0;entryX=0;entryY=0.5;entryDx=0;entryDy=0;fontStyle=1" edge="1" parent="rj8hadXewfnGIuyZVq-A-8" source="rj8hadXewfnGIuyZVq-A-11" target="hH7E1oOwA9dy5rn2mmX7-12">
          <mxGeometry relative="1" as="geometry" />
        </mxCell>
        <mxCell id="rj8hadXewfnGIuyZVq-A-11" value="EXECUTION&amp;nbsp; DES TESTS" style="rounded=1;whiteSpace=wrap;html=1;fontStyle=1" vertex="1" parent="rj8hadXewfnGIuyZVq-A-8">
          <mxGeometry x="350" y="45" width="120" height="60" as="geometry" />
        </mxCell>
        <mxCell id="hH7E1oOwA9dy5rn2mmX7-3" value="2" style="ellipse;whiteSpace=wrap;html=1;aspect=fixed;fillColor=#e1d5e7;strokeColor=#9673a6;fontStyle=1;fontSize=33;" vertex="1" parent="rj8hadXewfnGIuyZVq-A-8">
          <mxGeometry x="13" y="126" width="46" height="46" as="geometry" />
        </mxCell>
        <mxCell id="hH7E1oOwA9dy5rn2mmX7-19" style="edgeStyle=orthogonalEdgeStyle;rounded=0;orthogonalLoop=1;jettySize=auto;html=1;exitX=0.5;exitY=1;exitDx=0;exitDy=0;fontStyle=1" edge="1" parent="rj8hadXewfnGIuyZVq-A-8" source="hH7E1oOwA9dy5rn2mmX7-12">
          <mxGeometry relative="1" as="geometry">
            <mxPoint x="533" y="132" as="targetPoint" />
          </mxGeometry>
        </mxCell>
        <mxCell id="hH7E1oOwA9dy5rn2mmX7-12" value="ECHEC" style="rhombus;whiteSpace=wrap;html=1;fontStyle=1" vertex="1" parent="rj8hadXewfnGIuyZVq-A-8">
          <mxGeometry x="503" y="47" width="60" height="55" as="geometry" />
        </mxCell>
        <mxCell id="hH7E1oOwA9dy5rn2mmX7-34" style="edgeStyle=orthogonalEdgeStyle;rounded=0;orthogonalLoop=1;jettySize=auto;html=1;exitX=1;exitY=0.5;exitDx=0;exitDy=0;endArrow=none;endFill=0;fontStyle=1" edge="1" parent="rj8hadXewfnGIuyZVq-A-8" source="hH7E1oOwA9dy5rn2mmX7-20">
          <mxGeometry relative="1" as="geometry">
            <mxPoint x="616" y="76" as="targetPoint" />
          </mxGeometry>
        </mxCell>
        <mxCell id="hH7E1oOwA9dy5rn2mmX7-20" value="ANALYSE ECHEC" style="rounded=1;whiteSpace=wrap;html=1;fontStyle=1" vertex="1" parent="rj8hadXewfnGIuyZVq-A-8">
          <mxGeometry x="476" y="132" width="120" height="60" as="geometry" />
        </mxCell>
        <mxCell id="hH7E1oOwA9dy5rn2mmX7-21" value="&amp;nbsp;RAPPORT DE TEST" style="rounded=1;whiteSpace=wrap;html=1;fontStyle=1;arcSize=17;" vertex="1" parent="rj8hadXewfnGIuyZVq-A-8">
          <mxGeometry x="685" y="49" width="84" height="60" as="geometry" />
        </mxCell>
        <mxCell id="hH7E1oOwA9dy5rn2mmX7-25" value="[Non]" style="text;html=1;align=center;verticalAlign=middle;resizable=0;points=[];autosize=1;strokeColor=none;fillColor=none;fontStyle=1" vertex="1" parent="rj8hadXewfnGIuyZVq-A-8">
          <mxGeometry x="567" y="53" width="47" height="26" as="geometry" />
        </mxCell>
        <mxCell id="hH7E1oOwA9dy5rn2mmX7-30" style="edgeStyle=orthogonalEdgeStyle;rounded=0;orthogonalLoop=1;jettySize=auto;html=1;exitX=1;exitY=0.5;exitDx=0;exitDy=0;entryX=-0.083;entryY=0.433;entryDx=0;entryDy=0;entryPerimeter=0;fontStyle=1" edge="1" parent="rj8hadXewfnGIuyZVq-A-8" source="hH7E1oOwA9dy5rn2mmX7-12" target="hH7E1oOwA9dy5rn2mmX7-21">
          <mxGeometry relative="1" as="geometry" />
        </mxCell>
        <mxCell id="hH7E1oOwA9dy5rn2mmX7-36" style="edgeStyle=orthogonalEdgeStyle;rounded=0;orthogonalLoop=1;jettySize=auto;html=1;exitX=0.75;exitY=0;exitDx=0;exitDy=0;" edge="1" parent="1" source="hH7E1oOwA9dy5rn2mmX7-1">
          <mxGeometry relative="1" as="geometry">
            <mxPoint x="831" y="495" as="targetPoint" />
          </mxGeometry>
        </mxCell>
        <mxCell id="hH7E1oOwA9dy5rn2mmX7-1" value="WIMP App" style="swimlane;whiteSpace=wrap;html=1;fontStyle=1;fillColor=#d80073;fontColor=#ffffff;strokeColor=#A50040;" vertex="1" parent="1">
          <mxGeometry x="420" y="553" width="548" height="200" as="geometry" />
        </mxCell>
        <mxCell id="hH7E1oOwA9dy5rn2mmX7-2" value="BOITE NOIRE" style="text;html=1;align=center;verticalAlign=middle;resizable=0;points=[];autosize=1;strokeColor=none;fillColor=none;fontStyle=1" vertex="1" parent="hH7E1oOwA9dy5rn2mmX7-1">
          <mxGeometry x="227" y="87" width="94" height="26" as="geometry" />
        </mxCell>
        <mxCell id="hH7E1oOwA9dy5rn2mmX7-4" value="3" style="ellipse;whiteSpace=wrap;html=1;aspect=fixed;fillColor=#e1d5e7;strokeColor=#9673a6;fontStyle=1;fontSize=33;" vertex="1" parent="hH7E1oOwA9dy5rn2mmX7-1">
          <mxGeometry x="7" y="29" width="46" height="46" as="geometry" />
        </mxCell>
        <mxCell id="hH7E1oOwA9dy5rn2mmX7-24" value="[Oui]" style="text;html=1;align=center;verticalAlign=middle;resizable=0;points=[];autosize=1;strokeColor=none;fillColor=none;fontStyle=1" vertex="1" parent="1">
          <mxGeometry x="784.5" y="366" width="43" height="26" as="geometry" />
        </mxCell>
        <mxCell id="hH7E1oOwA9dy5rn2mmX7-32" style="edgeStyle=orthogonalEdgeStyle;rounded=0;orthogonalLoop=1;jettySize=auto;html=1;exitX=0.5;exitY=1;exitDx=0;exitDy=0;entryX=0.125;entryY=-0.022;entryDx=0;entryDy=0;entryPerimeter=0;fontStyle=1" edge="1" parent="1" source="rj8hadXewfnGIuyZVq-A-2" target="rj8hadXewfnGIuyZVq-A-8">
          <mxGeometry relative="1" as="geometry" />
        </mxCell>
      </root>
    </mxGraphModel>
  </diagram>
  <diagram id="KNDYBpGILWGlPk3Xi3_w" name="Microservice">
    <mxGraphModel grid="0" page="1" gridSize="10" guides="1" tooltips="1" connect="1" arrows="1" fold="1" pageScale="1" pageWidth="1169" pageHeight="827" math="0" shadow="0">
      <root>
        <mxCell id="0" />
        <mxCell id="1" parent="0" />
        <mxCell id="zldRT9XGIBylsrYmwoOK-1" value="" style="swimlane;startSize=0;dashed=1;strokeWidth=2;swimlaneLine=1;fillColor=#008a00;fontColor=#ffffff;strokeColor=#005700;" vertex="1" parent="1">
          <mxGeometry x="200" y="160" width="770" height="480" as="geometry" />
        </mxCell>
        <mxCell id="zldRT9XGIBylsrYmwoOK-3" value="" style="rounded=0;whiteSpace=wrap;html=1;dashed=1;strokeWidth=2;strokeColor=#00CC00;" vertex="1" parent="zldRT9XGIBylsrYmwoOK-1">
          <mxGeometry x="170" y="69" width="490" height="350" as="geometry" />
        </mxCell>
        <mxCell id="zldRT9XGIBylsrYmwoOK-2" value="Controllers" style="rounded=0;whiteSpace=wrap;html=1;fillColor=#cdeb8b;strokeColor=#36393d;fontSize=15;fontStyle=1" vertex="1" parent="zldRT9XGIBylsrYmwoOK-1">
          <mxGeometry x="241" y="338" width="340" height="30" as="geometry" />
        </mxCell>
        <mxCell id="zldRT9XGIBylsrYmwoOK-6" value="Express.js" style="text;html=1;align=center;verticalAlign=middle;whiteSpace=wrap;rounded=0;fontSize=16;fontStyle=1;fontColor=#00ff40;" vertex="1" parent="zldRT9XGIBylsrYmwoOK-1">
          <mxGeometry x="575" y="79" width="60" height="30" as="geometry" />
        </mxCell>
        <mxCell id="zldRT9XGIBylsrYmwoOK-8" value="Mongoose" style="rounded=0;whiteSpace=wrap;html=1;fillColor=#eeeeee;strokeColor=#36393d;fontSize=15;fontStyle=1" vertex="1" parent="zldRT9XGIBylsrYmwoOK-1">
          <mxGeometry x="30" y="260" width="110" height="159" as="geometry" />
        </mxCell>
        <mxCell id="zldRT9XGIBylsrYmwoOK-13" value="Node.js" style="text;html=1;align=center;verticalAlign=middle;whiteSpace=wrap;rounded=0;fontStyle=1;fontSize=18;" vertex="1" parent="zldRT9XGIBylsrYmwoOK-1">
          <mxGeometry x="20" y="20" width="60" height="30" as="geometry" />
        </mxCell>
        <mxCell id="zldRT9XGIBylsrYmwoOK-14" value="" style="shape=singleArrow;direction=north;whiteSpace=wrap;html=1;arrowWidth=0.5135135135135105;arrowSize=0.06407322654462243;fillColor=#f0a30a;strokeColor=#BD7000;fontColor=#000000;" vertex="1" parent="zldRT9XGIBylsrYmwoOK-1">
          <mxGeometry x="690" y="-17" width="37" height="437" as="geometry" />
        </mxCell>
        <mxCell id="zldRT9XGIBylsrYmwoOK-15" value="" style="shape=singleArrow;direction=south;whiteSpace=wrap;html=1;arrowWidth=0.52;arrowSize=0.35;fillColor=#f0a30a;strokeColor=#BD7000;fontColor=#000000;" vertex="1" parent="zldRT9XGIBylsrYmwoOK-1">
          <mxGeometry x="185" y="-12" width="35" height="80" as="geometry" />
        </mxCell>
        <mxCell id="zldRT9XGIBylsrYmwoOK-16" value="" style="shape=doubleArrow;whiteSpace=wrap;html=1;arrowWidth=0.5333333333333333;arrowSize=0.25;fillColor=#f0a30a;strokeColor=#BD7000;fontColor=#000000;" vertex="1" parent="zldRT9XGIBylsrYmwoOK-1">
          <mxGeometry x="140" y="277" width="100" height="20" as="geometry" />
        </mxCell>
        <mxCell id="zldRT9XGIBylsrYmwoOK-17" value="" style="shape=doubleArrow;whiteSpace=wrap;html=1;arrowWidth=0.5333333333333333;arrowSize=0.25;fillColor=#f0a30a;strokeColor=#BD7000;fontColor=#000000;" vertex="1" parent="zldRT9XGIBylsrYmwoOK-1">
          <mxGeometry x="140" y="344" width="100" height="20" as="geometry" />
        </mxCell>
        <mxCell id="zldRT9XGIBylsrYmwoOK-24" value="" style="shape=singleArrow;whiteSpace=wrap;html=1;arrowWidth=0.6;arrowSize=0.32;fillColor=#cdeb8b;strokeColor=#36393d;" vertex="1" parent="zldRT9XGIBylsrYmwoOK-1">
          <mxGeometry x="581" y="343" width="119" height="19" as="geometry" />
        </mxCell>
        <mxCell id="zldRT9XGIBylsrYmwoOK-25" value="" style="shape=singleArrow;direction=south;whiteSpace=wrap;html=1;arrowWidth=0.5333333333333333;arrowSize=0.33;fillColor=#cdeb8b;strokeColor=#36393d;" vertex="1" parent="zldRT9XGIBylsrYmwoOK-1">
          <mxGeometry x="385" y="221" width="25" height="50" as="geometry" />
        </mxCell>
        <mxCell id="zldRT9XGIBylsrYmwoOK-26" value="" style="shape=singleArrow;direction=south;whiteSpace=wrap;html=1;arrowWidth=0.5333333333333333;arrowSize=0.33;fillColor=#cdeb8b;strokeColor=#36393d;" vertex="1" parent="zldRT9XGIBylsrYmwoOK-1">
          <mxGeometry x="385" y="303" width="25" height="34" as="geometry" />
        </mxCell>
        <mxCell id="zldRT9XGIBylsrYmwoOK-27" value="" style="shape=singleArrow;whiteSpace=wrap;html=1;arrowWidth=0.6;arrowSize=0.32;fillColor=#cdeb8b;strokeColor=#36393d;" vertex="1" parent="zldRT9XGIBylsrYmwoOK-1">
          <mxGeometry x="582" y="278" width="119" height="19" as="geometry" />
        </mxCell>
        <mxCell id="zldRT9XGIBylsrYmwoOK-28" value="" style="shape=singleArrow;whiteSpace=wrap;html=1;arrowWidth=0.6;arrowSize=0.32;fillColor=#cdeb8b;strokeColor=#36393d;" vertex="1" parent="zldRT9XGIBylsrYmwoOK-1">
          <mxGeometry x="582" y="180" width="119" height="19" as="geometry" />
        </mxCell>
        <mxCell id="zldRT9XGIBylsrYmwoOK-29" value="" style="shape=singleArrow;direction=south;whiteSpace=wrap;html=1;arrowWidth=0.5333333333333333;arrowSize=0.33;fillColor=#f0a30a;strokeColor=#BD7000;fontColor=#000000;" vertex="1" parent="zldRT9XGIBylsrYmwoOK-1">
          <mxGeometry x="50" y="420" width="25" height="68" as="geometry" />
        </mxCell>
        <mxCell id="zldRT9XGIBylsrYmwoOK-31" value="" style="shape=singleArrow;direction=south;whiteSpace=wrap;html=1;arrowWidth=0.5333333333333333;arrowSize=0.33;fillColor=#f0a30a;strokeColor=#BD7000;fontColor=#000000;rotation=-180;" vertex="1" parent="zldRT9XGIBylsrYmwoOK-1">
          <mxGeometry x="80" y="420" width="25" height="72" as="geometry" />
        </mxCell>
        <mxCell id="zldRT9XGIBylsrYmwoOK-5" value="MongoDB" style="strokeWidth=2;html=1;shape=mxgraph.flowchart.database;whiteSpace=wrap;strokeColor=#00CC00;fontStyle=1;fontSize=14;" vertex="1" parent="1">
          <mxGeometry x="240" y="650" width="80" height="60" as="geometry" />
        </mxCell>
        <mxCell id="zldRT9XGIBylsrYmwoOK-12" value="JWT Authentification" style="rounded=0;whiteSpace=wrap;html=1;fillColor=#fa6800;strokeColor=#C73500;fontColor=#000000;fontStyle=1;fontSize=14;" vertex="1" parent="1">
          <mxGeometry x="440" y="430" width="340" height="32" as="geometry" />
        </mxCell>
        <mxCell id="zldRT9XGIBylsrYmwoOK-18" value="Matched Route" style="rounded=0;whiteSpace=wrap;html=1;fillColor=#b1ddf0;strokeColor=#10739e;fontStyle=1;fontSize=15;" vertex="1" parent="1">
          <mxGeometry x="440" y="314" width="340" height="66" as="geometry" />
        </mxCell>
        <mxCell id="zldRT9XGIBylsrYmwoOK-21" value="HTTP Request" style="text;html=1;align=center;verticalAlign=middle;whiteSpace=wrap;rounded=0;fontStyle=1;fontSize=12;" vertex="1" parent="1">
          <mxGeometry x="372" y="115" width="60" height="30" as="geometry" />
        </mxCell>
        <mxCell id="zldRT9XGIBylsrYmwoOK-22" value="HTTP Request" style="text;html=1;align=center;verticalAlign=middle;whiteSpace=wrap;rounded=0;fontStyle=1;fontSize=12;" vertex="1" parent="1">
          <mxGeometry x="879" y="113" width="60" height="30" as="geometry" />
        </mxCell>
      </root>
    </mxGraphModel>
  </diagram>
</mxfile>
